<svg width="1731" height="522" xmlns="http://www.w3.org/2000/svg" xmlns:xlink="http://www.w3.org/1999/xlink" xml:space="preserve" overflow="hidden"><defs><filter id="fx0" x="-10%" y="-10%" width="120%" height="120%" filterUnits="userSpaceOnUse" primitiveUnits="userSpaceOnUse"><feComponentTransfer color-interpolation-filters="sRGB"><feFuncR type="discrete" tableValues="0 0"/><feFuncG type="discrete" tableValues="0 0"/><feFuncB type="discrete" tableValues="0 0"/><feFuncA type="linear" slope="0.301961" intercept="0"/></feComponentTransfer><feGaussianBlur stdDeviation="4.65858 4.65858"/></filter></defs><g transform="translate(-613 -702)"><path d="M1457.81 826.607C1463.67 826.607 1469.06 827.72 1473.99 829.945 1478.92 832.169 1481.98 835.507 1483.18 839.957 1482.07 849.759 1480.48 870.508 1478.4 902.204 1476.32 933.901 1475.28 963.018 1475.28 989.558 1475.28 1021.54 1477 1044.81 1480.42 1059.37 1483.85 1073.93 1488.17 1081.21 1493.39 1081.21 1499.99 1081.21 1507.18 1072.22 1514.97 1054.25 1522.76 1036.28 1529.6 1011.78 1535.48 980.761 1536.13 980.107 1536.79 979.535 1537.43 979.045L1537.47 979.021 1537.45 978.433C1537.19 967.779 1537.06 956.727 1537.06 945.278 1537.06 922.236 1537.59 901.808 1538.66 883.994 1539.72 866.18 1541.21 853.992 1543.12 847.431 1544.96 841.26 1548.73 836.708 1554.44 833.776 1560.16 830.844 1566.51 829.378 1573.51 829.378 1578.76 829.378 1583.76 830.247 1588.51 831.985 1593.25 833.723 1596.45 836.653 1598.1 840.775 1596.99 856.173 1595.72 879.852 1594.27 911.813 1592.83 943.774 1591.99 971.641 1591.77 995.414 1592.76 953.472 1600.81 918.147 1615.91 889.437 1631.01 860.728 1651.01 846.373 1675.9 846.373 1693.68 846.373 1708.48 852.287 1720.31 864.115 1732.13 875.942 1738.05 891.27 1738.05 910.097 1738.05 914.946 1737.23 929.546 1735.61 953.898 1733.54 982.856 1732.51 1005.15 1732.51 1020.79 1732.51 1056.85 1737.36 1074.89 1747.06 1074.89 1754.27 1074.89 1761.88 1066.8 1769.9 1050.63 1777.92 1034.47 1784.96 1011.36 1791.03 981.302 1792.64 978.062 1795.38 976.441 1799.25 976.441 1802.42 976.441 1805.2 977.917 1807.59 980.868 1809.99 983.819 1811.18 987.305 1811.18 991.327 1805.51 1019.73 1799.21 1041.8 1792.28 1057.55 1785.35 1073.31 1777.63 1084.38 1769.12 1090.76 1760.61 1097.14 1750.75 1100.33 1739.55 1100.33 1717.66 1100.33 1701.5 1091.02 1691.07 1072.39 1680.64 1053.76 1675.43 1030.63 1675.43 1003 1675.43 992.007 1676.63 972.991 1679.04 945.952 1680.85 927.901 1681.76 914.234 1681.76 904.953 1681.76 894.861 1680.49 887.278 1677.95 882.202 1675.41 877.127 1671.96 874.589 1667.6 874.589 1655.11 874.589 1643.33 887.686 1632.27 913.879 1621.21 940.072 1612.42 970.254 1605.9 1004.42 1599.38 1038.6 1596.12 1064.16 1596.12 1081.12 1594.24 1084.41 1591.13 1086.98 1586.79 1088.84 1582.45 1090.71 1577.76 1091.64 1572.72 1091.64 1560.42 1091.64 1552.34 1087.49 1548.49 1079.19 1546.06 1073.57 1544.02 1064.85 1542.38 1053.03L1541.56 1046.46 1541.47 1046.73C1539.84 1051.65 1538.18 1056.17 1536.49 1060.28 1529.76 1076.72 1522.25 1088.29 1513.96 1095.01 1505.68 1101.72 1495.92 1105.07 1484.69 1105.07 1462.79 1105.07 1446.83 1096.04 1436.82 1077.97 1426.81 1059.89 1420.94 1036.64 1419.21 1008.22 1414.94 1008.22 1401.45 1008.48 1378.74 1009.01L1347.18 1009.36C1347.67 1049.85 1348.86 1076.9 1350.75 1090.48 1349.99 1095.49 1347.15 1099.5 1342.22 1102.52 1337.29 1105.54 1331.8 1107.05 1325.76 1107.05 1320.53 1107.05 1315.73 1105.88 1311.37 1103.54 1307 1101.21 1303.91 1097.91 1302.08 1093.65 1296.49 1082.47 1292.82 1054.79 1291.05 1010.59L1257.5 1010.99C1254.46 1008.56 1252.95 1005.24 1252.95 1001.02 1252.95 996.948 1254.46 993.311 1257.49 990.112 1260.52 986.913 1264.6 985.144 1269.71 984.804 1273.9 984.501 1280.83 984.35 1290.5 984.35 1289.98 977.172 1289.71 963.621 1289.71 943.698 1289.71 891.69 1291.74 858.73 1295.8 844.818 1297.36 839.86 1301.13 835.849 1307.1 832.784 1313.07 829.72 1319.56 828.188 1326.56 828.188 1331.47 828.188 1336.01 828.991 1340.18 830.596 1344.35 832.202 1347.35 834.598 1349.17 837.784 1347.59 862.598 1346.79 903.305 1346.79 959.906L1346.79 983.953 1393.76 983.953 1418.19 983.953 1418.19 977.304C1418.19 950.794 1419.12 923.825 1420.98 896.395 1422.83 868.966 1424.94 852.181 1427.29 846.039 1429.21 839.23 1433.1 834.289 1438.93 831.216 1444.77 828.144 1451.06 826.607 1457.81 826.607Z" stroke="#6F4DD5" stroke-width="4" stroke-linejoin="round" stroke-miterlimit="10" fill="#FFFFFF" fill-rule="evenodd"/><text fill="#000000" fill-opacity="0" font-family="Arial,Arial_MSFontService,sans-serif" font-size="280.444" x="1252.95" y="1072">HN</text><path d="M830 827.668C830 790.848 859.848 761 896.668 761L1163.33 761C1200.15 761 1230 790.848 1230 827.668L1230 1098.33C1230 1135.15 1200.15 1165 1163.33 1165L896.668 1165C859.848 1165 830 1135.15 830 1098.33Z" fill="#6F4DD5" fill-rule="evenodd"/><g filter="url(#fx0)" transform="translate(897 831)"><g><path d="M153.26 40.2048C147.441 40.2048 140.875 44.5926 133.562 53.3681 126.249 62.1436 118.92 76.0093 111.576 94.9652 104.233 113.921 97.9898 135.946 92.848 161.04L161.609 161.04 163.272 121.811C163.52 112.934 163.883 103.804 164.359 94.4205 164.834 85.0371 165.072 76.4231 165.072 68.5785 165.072 58.8492 163.974 51.6879 161.778 47.0947 159.582 42.5014 156.742 40.2048 153.26 40.2048ZM164.063 16.6709C179.145 16.6709 191.747 22.6299 201.87 34.5479 211.993 46.4658 217.055 64.1688 217.055 87.6568 217.055 92.8674 216.317 109.025 214.841 136.129 212.956 167.63 212.014 190.596 212.014 205.028 212.014 220.568 213.103 231.343 215.28 237.353 217.457 243.362 220.665 246.367 224.905 246.367 231.698 246.367 238.624 238.965 245.683 224.161 252.742 209.356 259.152 187.681 264.914 159.136 266.328 155.848 268.714 154.204 272.07 154.204 274.945 154.204 277.536 155.603 279.843 158.402 282.15 161.2 283.304 164.436 283.304 168.11 276.166 204.29 267.439 230.181 257.121 245.782 246.803 261.383 233.185 269.184 216.269 269.184 196.225 269.184 182.021 260.44 173.657 242.952 165.292 225.464 161.11 205.622 161.11 183.427L161.11 182.779C149.194 182.779 125.299 183.232 89.4246 184.138 85.4029 208.482 82.5357 235.692 80.823 265.766 78.0629 268.523 74.607 269.901 70.4553 269.901 64.0404 269.901 58.2248 267.858 53.0084 263.771 47.7921 259.684 45.1839 253.904 45.1839 246.43 45.1839 228.642 47.944 208.023 53.4643 184.573L20.658 185.657C18.2877 183.321 17.1026 180.418 17.1026 176.947 17.1026 173.204 18.5573 169.879 21.4665 166.972 24.3757 164.064 28.732 162.473 34.5351 162.198 37.1194 161.907 42.1122 161.762 49.5133 161.762L57.7307 161.533C67.4753 123.013 81.449 89.2394 99.6518 60.212 117.855 31.1846 139.325 16.6709 164.063 16.6709Z" stroke="#A02B93" stroke-width="4" stroke-linejoin="round" stroke-miterlimit="10" fill="#FFFFFF" fill-rule="evenodd"/></g></g><path d="M1050.26 862.822C1044.44 862.822 1037.88 867.21 1030.56 875.985 1023.25 884.761 1015.92 898.627 1008.58 917.583 1001.23 936.538 994.99 958.563 989.848 983.657L1058.61 983.657 1060.27 944.428C1060.52 935.551 1060.88 926.421 1061.36 917.038 1061.83 907.654 1062.07 899.04 1062.07 891.196 1062.07 881.466 1060.97 874.305 1058.78 869.712 1056.58 865.119 1053.74 862.822 1050.26 862.822ZM1061.06 839.288C1076.14 839.288 1088.75 845.247 1098.87 857.165 1108.99 869.083 1114.05 886.786 1114.05 910.274 1114.05 915.485 1113.32 931.642 1111.84 958.747 1109.96 990.248 1109.01 1013.21 1109.01 1027.65 1109.01 1043.19 1110.1 1053.96 1112.28 1059.97 1114.46 1065.98 1117.67 1068.98 1121.9 1068.98 1128.7 1068.98 1135.62 1061.58 1142.68 1046.78 1149.74 1031.97 1156.15 1010.3 1161.91 981.753 1163.33 978.465 1165.71 976.821 1169.07 976.821 1171.94 976.821 1174.54 978.221 1176.84 981.019 1179.15 983.817 1180.3 987.054 1180.3 990.727 1173.17 1026.91 1164.44 1052.8 1154.12 1068.4 1143.8 1084 1130.19 1091.8 1113.27 1091.8 1093.23 1091.8 1079.02 1083.06 1070.66 1065.57 1062.29 1048.08 1058.11 1028.24 1058.11 1006.04L1058.11 1005.4C1046.19 1005.4 1022.3 1005.85 986.425 1006.75 982.403 1031.1 979.536 1058.31 977.823 1088.38 975.063 1091.14 971.607 1092.52 967.455 1092.52 961.04 1092.52 955.225 1090.47 950.008 1086.39 944.792 1082.3 942.184 1076.52 942.184 1069.05 942.184 1051.26 944.944 1030.64 950.464 1007.19L917.658 1008.27C915.288 1005.94 914.103 1003.04 914.103 999.564 914.103 995.821 915.557 992.496 918.466 989.589 921.376 986.682 925.732 985.09 931.535 984.815 934.119 984.525 939.112 984.379 946.513 984.379L954.731 984.15C964.475 945.63 978.449 911.857 996.652 882.829 1014.85 853.802 1036.33 839.288 1061.06 839.288Z" stroke="#A02B93" stroke-width="4" stroke-linejoin="round" stroke-miterlimit="10" fill="#FFFFFF" fill-rule="evenodd"/><text fill="#000000" fill-opacity="0" font-family="Arial,Arial_MSFontService,sans-serif" font-size="253.23" x="914.103" y="1060.86">A</text></g></svg>